<svg width="24" height="25" viewBox="0 0 24 25" fill="none" xmlns="http://www.w3.org/2000/svg">
<path d="M6.72001 9.61437L3.25688 12.5L6.72001 15.3856C6.83486 15.4797 6.92994 15.5957 6.99977 15.7267C7.0696 15.8578 7.11279 16.0014 7.12686 16.1492C7.14092 16.297 7.12558 16.4462 7.08173 16.588C7.03787 16.7299 6.96636 16.8617 6.87132 16.9758C6.77628 17.0899 6.65959 17.184 6.52799 17.2528C6.39638 17.3216 6.25246 17.3636 6.10453 17.3765C5.95659 17.3894 5.80757 17.3729 5.66606 17.3279C5.52455 17.2829 5.39334 17.2103 5.28001 17.1144L0.780005 13.3644C0.653265 13.2588 0.551294 13.1266 0.481315 12.9773C0.411336 12.8279 0.375061 12.665 0.375061 12.5C0.375061 12.335 0.411336 12.1721 0.481315 12.0227C0.551294 11.8734 0.653265 11.7412 0.780005 11.6356L5.28001 7.88562C5.50957 7.69749 5.80419 7.6077 6.09966 7.63581C6.39514 7.66393 6.66753 7.80767 6.8575 8.03573C7.04746 8.26379 7.13961 8.55768 7.11385 8.85337C7.0881 9.14906 6.94654 9.42259 6.72001 9.61437ZM23.22 11.6356L18.72 7.88562C18.6067 7.78967 18.4755 7.71711 18.334 7.67212C18.1924 7.62713 18.0434 7.6106 17.8955 7.62349C17.7475 7.63637 17.6036 7.67841 17.472 7.74719C17.3404 7.81597 17.2237 7.91012 17.1287 8.02422C17.0337 8.13832 16.9621 8.2701 16.9183 8.41197C16.8744 8.55384 16.8591 8.70299 16.8732 8.85081C16.8872 8.99864 16.9304 9.14222 17.0002 9.27327C17.0701 9.40432 17.1652 9.52025 17.28 9.61437L20.7431 12.5L17.28 15.3856C17.1652 15.4797 17.0701 15.5957 17.0002 15.7267C16.9304 15.8578 16.8872 16.0014 16.8732 16.1492C16.8591 16.297 16.8744 16.4462 16.9183 16.588C16.9621 16.7299 17.0337 16.8617 17.1287 16.9758C17.2237 17.0899 17.3404 17.184 17.472 17.2528C17.6036 17.3216 17.7475 17.3636 17.8955 17.3765C18.0434 17.3894 18.1924 17.3729 18.334 17.3279C18.4755 17.2829 18.6067 17.2103 18.72 17.1144L23.22 13.3644C23.3467 13.2588 23.4487 13.1266 23.5187 12.9773C23.5887 12.8279 23.625 12.665 23.625 12.5C23.625 12.335 23.5887 12.1721 23.5187 12.0227C23.4487 11.8734 23.3467 11.7412 23.22 11.6356ZM15.3844 3.1925C15.2455 3.142 15.0981 3.11935 14.9504 3.12584C14.8028 3.13234 14.6579 3.16786 14.524 3.23037C14.3901 3.29288 14.2698 3.38115 14.1701 3.49015C14.0703 3.59915 13.993 3.72674 13.9425 3.86562L7.94251 20.3656C7.8408 20.646 7.85457 20.9552 7.9808 21.2254C8.10702 21.4956 8.33536 21.7046 8.61563 21.8066C8.73868 21.852 8.86884 21.8752 9.00001 21.875C9.23098 21.875 9.45638 21.804 9.64557 21.6715C9.83477 21.539 9.97859 21.3515 10.0575 21.1344L16.0575 4.63437C16.108 4.4955 16.1307 4.34804 16.1242 4.20042C16.1177 4.05279 16.0821 3.90789 16.0196 3.77399C15.9571 3.6401 15.8689 3.51983 15.7599 3.42005C15.6509 3.32028 15.5233 3.24295 15.3844 3.1925Z" fill="#AC56F5"/>
</svg>
