<svg width="25" height="25" viewBox="0 0 25 25" fill="none" xmlns="http://www.w3.org/2000/svg">
<path d="M16.2085 21.5H20.1666C20.5645 21.5 20.946 21.342 21.2273 21.0607C21.5086 20.7794 21.6666 20.3978 21.6666 20V16.4703C21.666 16.3473 21.6351 16.2264 21.5767 16.1181C21.5183 16.0099 21.4342 15.9176 21.3318 15.8496C21.2293 15.7815 21.1117 15.7397 20.9893 15.7277C20.8669 15.7158 20.7434 15.7342 20.6298 15.7812C20.364 15.891 20.0792 15.9474 19.7916 15.9472C18.5513 15.9472 17.5416 14.9066 17.5416 13.6287C17.5416 12.3509 18.5513 11.3103 19.7916 11.3103C20.0792 11.3101 20.364 11.3665 20.6298 11.4762C20.744 11.5235 20.8681 11.5419 20.9911 11.5296C21.1142 11.5173 21.2322 11.4748 21.3349 11.4058C21.4375 11.3369 21.5215 11.2437 21.5794 11.1344C21.6372 11.0252 21.6672 10.9033 21.6666 10.7797V7.25C21.6666 6.85218 21.5086 6.47064 21.2273 6.18934C20.946 5.90804 20.5645 5.75 20.1666 5.75H16.771C16.785 5.62549 16.7918 5.50029 16.7916 5.375C16.7916 4.47989 16.436 3.62145 15.8031 2.98851C15.1702 2.35558 14.3117 2 13.4166 2C12.5215 2 11.6631 2.35558 11.0301 2.98851C10.3972 3.62145 10.0416 4.47989 10.0416 5.375C10.0414 5.50029 10.0483 5.62549 10.0623 5.75H6.66663C6.2688 5.75 5.88727 5.90804 5.60597 6.18934C5.32466 6.47064 5.16663 6.85218 5.16663 7.25V10.2706C5.04212 10.2567 4.91692 10.2498 4.79163 10.25C3.89652 10.25 3.03808 10.6056 2.40514 11.2385C1.77221 11.8715 1.41663 12.7299 1.41663 13.625C1.41663 14.5201 1.77221 15.3785 2.40514 16.0115C3.03808 16.6444 3.89652 17 4.79163 17C4.91692 17.0002 5.04212 16.9933 5.16663 16.9794V20C5.16663 20.3978 5.32466 20.7794 5.60597 21.0607C5.88727 21.342 6.2688 21.5 6.66663 21.5H10.6248" fill="#AC56F5"/>
</svg>
